<?xml version="1.0" encoding="utf-8"?>
<!-- Generator: Adobe Illustrator 22.1.0, SVG Export Plug-In . SVG Version: 6.00 Build 0)  -->
<svg version="1.1" id="图层_1" xmlns="http://www.w3.org/2000/svg" xmlns:xlink="http://www.w3.org/1999/xlink" x="0px" y="0px"
	 viewBox="0 0 313.9 297" style="enable-background:new 0 0 313.9 297;" xml:space="preserve">
<style type="text/css">
	.st0{fill:#FD507E;}
</style>
<title>continue</title>
<path class="st0" d="M313.8,146.7c-0.2-11.7-3.7-27.5-5.5-31.5c-1.8-3.9-3.4-7.1-11.4-12.3s-16.5-4.4-24.7-10.2
	c-5.5-4.1-8.9-10.4-9.5-17.3c-1-10,4-17,3.6-26.5c-0.5-9.5-2.5-12.5-4.9-16S244,17.4,233.8,11.7s-25.7-10.6-30-11s-7.9-0.6-16.4,3.7
	s-11.5,11.1-21.2,16.3c-1.4,0.7-2.9,1.3-4.4,1.8c-5.2,1.3-10.7,0.5-15.4-2.2c-9.1-4.2-12.7-12-21.1-16.4s-12.1-4.1-16.4-3.7
	S86.9,7.5,76.9,13.5s-22,17-24.5,20.5s-4.5,6.5-5,16s4.5,16.5,3.5,26.5c0,1.7-0.2,3.4-0.6,5c-1.6,5-5,9.3-9.6,11.8
	c-8.2,5.8-16.7,5-24.7,10.1c-8,5.1-9.6,8.4-11.4,12.3s-4.8,22.8-4.6,34.5s3.7,27.5,5.5,31.5s3.4,7.1,11.4,12.3s16.5,4.4,24.7,10.2
	c1.5,1,3,2.1,4.4,3.3c3.4,3.9,5.2,8.9,5.1,14c1,10-4.1,17-3.6,26.5s2.4,12.5,4.9,16s17.4,15.5,27.6,21.2s25.7,10.5,30,11
	s7.9,0.6,16.4-3.7s12-12.1,21.2-16.3c1.4-0.7,2.8-1.3,4.3-1.7c5.2-1.3,10.8-0.5,15.4,2.2c9.1,4.2,12.7,12,21.1,16.4
	s12.1,4.1,16.4,3.7s22.2-7.3,32.2-13.3s22-17,24.5-20.5s4.5-6.5,5-16s-4.5-16.5-3.5-26.5c0.2-1.7,0.5-3.4,1.1-5
	c1.3-5,4.6-9.3,9.2-11.9c8.2-5.8,16.7-5,24.7-10.1s9.6-8.4,11.4-12.3C311.1,177.3,314,158.4,313.8,146.7z M157.4,232
	c-46.4,0-84-37.6-84-84s37.6-84,84-84s84,37.6,84,84l0,0C241.4,194.4,203.8,232,157.4,232z"/>
<path class="st0" d="M122.7,96.1V200c0,1,0.8,1.8,1.8,1.8c0.3,0,0.6-0.1,0.9-0.2l90-52c0.8-0.5,1.1-1.6,0.6-2.4
	c-0.1-0.2-0.3-0.4-0.6-0.6l-90-52c-0.8-0.5-1.9-0.2-2.4,0.6C122.8,95.4,122.7,95.7,122.7,96.1z"/>
</svg>
