<?xml version="1.0" standalone="no"?><!DOCTYPE svg PUBLIC "-//W3C//DTD SVG 1.1//EN" "http://www.w3.org/Graphics/SVG/1.1/DTD/svg11.dtd"><svg t="1640332090029" class="icon" viewBox="0 0 1365 1024" version="1.1" xmlns="http://www.w3.org/2000/svg" p-id="2026" xmlns:xlink="http://www.w3.org/1999/xlink" width="266.6015625" height="200"><defs><style type="text/css"></style></defs><path d="M513.877333 0h120.448c21.632 0 32.384 10.624 32.384 32v510.72c0 21.376-10.752 32-32.384 32h-120.448c-21.632 0-32.384-10.624-32.384-32v-510.72c-0.128-21.376 10.752-32 32.384-32z m0 0" p-id="2027"></path><path d="M893.525333 567.68L607.061333 851.2c-18.048 17.28-46.72 17.28-64.768 0L254.677333 567.68c-13.184-13.312-17.152-33.152-9.856-50.432C251.989333 499.968 268.885333 488.576 287.829333 488.32h572.672c18.944 0.256 35.712 11.648 43.008 28.928 7.04 17.28 3.2 37.12-9.984 50.432zM1018.453333 1024H129.621333c-38.272-3.584-67.584-35.328-67.584-73.344 0-38.016 29.312-69.76 67.584-73.216h888.832c38.272 3.584 67.584 35.328 67.584 73.216 0 38.016-29.184 69.76-67.584 73.344z m0 0" p-id="2028" data-spm-anchor-id="a313x.7781069.0.i0"></path></svg>