<?xml version="1.0" encoding="utf-8"?>
<!-- Generator: Adobe Illustrator 22.1.0, SVG Export Plug-In . SVG Version: 6.00 Build 0)  -->
<svg version="1.1" id="图层_1" xmlns="http://www.w3.org/2000/svg" xmlns:xlink="http://www.w3.org/1999/xlink" x="0px" y="0px"
	 viewBox="0 0 200 200" style="enable-background:new 0 0 200 200;" xml:space="preserve">
<style type="text/css">
	.st0{fill:#FFFFF3;}
</style>
<path class="st0" d="M29.7,93.6h64.1v-64C93,14.1,80.2,2,64.7,2.2c-15.4,0.1-28.2,12-29.2,27.4v5.8h-5.8
	C14.5,36.6,2.9,49.3,2.9,64.5S14.5,92.3,29.7,93.6z M171,106.4h-64.1v64c1,15.4,13.7,27.4,29.2,27.3c15.4,0,28.2-12,29.1-27.3v-5.2
	h5.8c15.1-1.3,26.8-13.9,26.8-29.1S186.2,108.3,171,107V106.4L171,106.4z M2.2,135.5c-0.2,15.6,11.9,28.7,27.5,29.7
	c1.9,0.2,3.9,0.2,5.8,0v5.8c1.3,15.1,14,26.8,29.2,26.8c15.3-0.2,28-12.1,29.1-27.4v-64H29.7C14.2,107.3,2.1,120.1,2.2,135.5z
	 M171,93.6c15.1-1.3,26.8-13.9,26.8-29.1S186.2,36.7,171,35.4c-1.9-0.2-3.9-0.2-5.8,0v-5.8c-1-15.4-13.7-27.4-29.2-27.3
	c-15.4,0-28.2,12-29.1,27.3v64C106.9,93.6,171,93.6,171,93.6z"/>
</svg>