<?xml version="1.0" encoding="utf-8"?>
<!-- Generator: Adobe Illustrator 22.1.0, SVG Export Plug-In . SVG Version: 6.00 Build 0)  -->
<svg version="1.1" id="图层_1" xmlns="http://www.w3.org/2000/svg" xmlns:xlink="http://www.w3.org/1999/xlink" x="0px" y="0px"
	 viewBox="0 0 431.7 462.1" style="enable-background:new 0 0 431.7 462.1;" xml:space="preserve">
<style type="text/css">
	.st0{fill:#8DDCFF;}
	.st1{fill:none;stroke:#FD507E;stroke-width:22;stroke-miterlimit:10;}
	.st2{fill:#FD507E;}
	.st3{font-family:'JosefinSans-Medium';}
	.st4{font-size:193.5493px;}
</style>
<title>帮我选择</title>
<path class="st0" d="M15.3,404.5c-2.8,4.6-4.3,9.9-4.3,15.2v3.4c0,15.4,12.5,27.9,27.9,27.9c0,0,0,0,0,0h256.5
	c14.6,0,26.4-11.8,26.4-26.4c0-8.6-2.4-17.1-6.8-24.5l-92.7-153.6H111.5L15.3,404.5z"/>
<path class="st1" d="M199.6,36v154.8c0,11.9,3.2,23.5,9.4,33.7l106,175.7c4.5,7.4,6.8,15.9,6.8,24.5l0,0c0,14.6-11.8,26.4-26.4,26.3
	c0,0,0,0,0,0H38.9c-15.4,0-27.9-12.5-27.9-27.9c0,0,0,0,0,0v-3.4c0-5.4,1.5-10.6,4.3-15.2l109.5-179.7c6.3-10.3,9.6-22.2,9.6-34.3
	V36c0-1.1-0.4-2.1-1-2.9l-4.6-6.2c-0.4-0.5-0.3-1.3,0.3-1.6c0.2-0.1,0.4-0.2,0.7-0.2h74.5c0.6,0,1.2,0.5,1.2,1.2
	c0,0.3-0.1,0.5-0.2,0.7l-4.6,6.1C199.9,33.9,199.6,34.9,199.6,36z"/>
<text transform="matrix(0.9573 0.2892 -0.2892 0.9573 240.4199 157.0499)" class="st2 st3 st4">?</text>
</svg>
