<svg id="svg" version="1.1" xmlns="http://www.w3.org/2000/svg" xmlns:xlink="http://www.w3.org/1999/xlink" width="400" height="477.06666666666666" viewBox="0, 0, 400,477.06666666666666"><g id="svgg"><path id="path0" d="M134.385 0.503 C 124.658 3.615,122.293 13.441,129.071 22.579 L 131.479 25.825 131.396 109.379 C 131.305 200.368,131.413 193.779,129.895 200.733 C 127.780 210.427,130.677 205.410,64.549 313.867 C -1.380 421.995,2.552 415.241,0.750 423.467 C -0.154 427.594,-0.163 440.091,0.736 444.090 C 4.419 460.482,16.285 472.398,32.840 476.331 L 35.333 476.924 176.933 476.998 C 316.374 477.072,318.580 477.065,321.600 476.552 C 330.072 475.113,336.674 471.625,343.138 465.173 C 345.084 463.230,346.764 461.602,346.871 461.554 C 347.224 461.396,349.555 457.760,350.090 456.533 C 356.162 442.609,355.999 428.030,349.602 412.883 C 347.737 408.465,351.272 414.396,288.672 310.667 C 225.187 205.473,228.580 211.333,226.403 203.088 C 224.213 194.791,224.282 197.901,224.274 106.557 L 224.267 26.046 226.564 22.988 C 229.716 18.791,230.657 16.512,230.664 13.056 C 230.674 7.100,226.399 1.581,220.770 0.283 C 218.399 -0.264,136.127 -0.054,134.385 0.503 M200.874 109.667 C 200.952 188.966,200.994 196.101,201.408 198.800 C 203.399 211.768,206.771 220.846,214.087 232.933 L 217.315 238.267 177.947 238.334 C 156.295 238.371,138.537 238.359,138.484 238.306 C 138.432 238.254,139.667 236.124,141.230 233.572 C 148.841 221.147,152.264 212.006,154.316 198.634 C 154.750 195.803,154.787 189.847,154.862 109.533 L 154.942 23.467 177.866 23.467 L 200.790 23.467 200.874 109.667 M210.989 254.182 C 212.761 254.712,213.927 256.137,218.477 263.333 C 220.889 267.147,224.120 272.187,225.658 274.533 C 228.024 278.144,232.461 285.040,238.907 295.125 C 239.712 296.385,240.225 297.452,240.113 297.633 C 239.996 297.822,240.032 297.879,240.200 297.775 C 240.361 297.675,241.086 298.544,241.890 299.800 C 242.665 301.010,246.436 306.860,250.270 312.800 C 256.248 322.060,260.559 328.773,267.174 339.125 C 267.979 340.385,268.492 341.452,268.379 341.633 C 268.263 341.822,268.298 341.879,268.469 341.773 C 268.765 341.590,271.629 345.911,282.848 363.467 C 291.077 376.342,292.484 378.533,298.610 388.000 C 309.229 404.413,313.631 411.467,313.443 411.772 C 313.331 411.953,313.366 412.011,313.528 411.911 C 313.883 411.691,322.740 425.266,322.497 425.658 C 322.396 425.823,322.440 425.873,322.599 425.775 C 322.950 425.558,324.072 427.401,323.829 427.795 C 323.728 427.958,323.775 428.006,323.936 427.906 C 324.101 427.804,324.735 428.547,325.436 429.665 C 326.104 430.729,326.546 431.636,326.419 431.680 C 326.291 431.724,326.958 433.019,327.900 434.558 C 330.273 438.433,330.534 439.161,330.528 441.867 C 330.523 444.046,329.692 446.933,329.071 446.933 C 328.963 446.933,328.506 447.623,328.055 448.467 C 326.987 450.467,325.780 451.590,324.133 452.116 C 322.917 452.505,310.136 452.536,178.800 452.471 L 34.800 452.400 33.600 451.705 C 26.436 447.558,26.000 446.739,26.452 438.267 C 26.531 436.800,26.689 435.360,26.804 435.067 C 27.354 433.661,40.091 413.625,40.338 413.777 C 40.499 413.877,40.536 413.820,40.426 413.642 C 40.207 413.287,40.871 412.176,51.288 395.467 C 55.540 388.647,60.303 380.967,61.871 378.400 C 63.439 375.833,67.422 369.413,70.722 364.133 C 74.022 358.853,77.859 352.673,79.250 350.400 C 80.641 348.127,84.517 341.887,87.863 336.533 C 91.210 331.180,95.230 324.700,96.795 322.133 C 98.361 319.567,102.674 312.615,106.381 306.686 C 110.087 300.756,114.592 293.496,116.392 290.553 C 118.193 287.609,121.738 281.900,124.270 277.867 C 126.803 273.833,130.672 267.593,132.868 264.000 C 137.817 255.902,137.879 255.820,139.662 255.004 C 143.407 253.290,147.722 255.678,147.726 259.467 C 147.728 261.104,148.463 259.848,132.301 285.802 C 128.579 291.777,123.913 299.307,121.930 302.533 C 112.384 318.073,107.409 325.863,107.139 325.696 C 106.969 325.591,106.928 325.642,107.039 325.821 C 107.249 326.161,105.199 329.576,94.131 347.333 C 89.926 354.080,85.160 361.760,83.539 364.400 C 81.919 367.040,77.549 374.089,73.830 380.064 C 64.648 394.813,50.890 416.976,45.480 425.733 C 43.033 429.693,40.779 433.173,40.470 433.467 L 39.907 434.000 40.392 433.200 L 40.877 432.400 40.146 433.067 C 37.404 435.567,37.905 440.781,40.890 440.816 C 50.458 440.930,313.885 440.820,314.076 440.702 C 314.220 440.613,314.404 440.208,314.485 439.803 C 314.565 439.398,314.821 438.407,315.054 437.600 C 315.601 435.701,314.773 431.733,313.829 431.733 C 313.729 431.733,312.595 430.083,311.311 428.067 C 310.027 426.050,306.139 420.020,302.671 414.667 C 289.234 393.924,283.163 384.275,283.354 383.966 C 283.471 383.778,283.435 383.721,283.266 383.826 C 282.956 384.017,280.729 380.646,266.734 358.800 C 261.755 351.027,255.165 340.767,252.090 336.000 C 241.376 319.390,238.098 314.140,238.268 313.864 C 238.362 313.712,238.307 313.620,238.144 313.660 C 237.840 313.735,232.575 305.747,221.936 289.067 C 218.614 283.860,213.322 275.640,210.174 270.800 C 207.027 265.960,204.233 261.520,203.965 260.933 C 202.099 256.842,206.321 252.783,210.989 254.182 M171.467 304.708 C 180.247 305.963,188.235 310.709,194.238 318.240 C 194.928 319.106,195.428 319.982,195.349 320.188 C 195.271 320.393,195.323 320.489,195.466 320.401 C 196.009 320.065,198.771 325.544,199.834 329.067 C 201.349 334.090,201.952 340.992,201.652 349.867 C 200.846 373.649,201.501 375.986,212.095 387.146 C 213.251 388.364,214.152 389.406,214.098 389.462 C 211.953 391.696,202.558 401.067,202.462 401.067 C 202.087 401.067,198.534 397.667,196.192 395.068 C 186.721 384.558,183.965 375.120,185.098 357.067 C 185.541 350.014,185.412 341.216,184.826 338.447 C 180.824 319.529,154.147 315.427,141.200 331.739 C 133.255 341.748,133.357 353.009,141.503 365.550 C 142.296 366.770,142.863 367.898,142.764 368.058 C 142.659 368.228,142.707 368.273,142.879 368.167 C 143.707 367.655,143.684 369.003,142.854 369.613 C 141.977 370.258,133.091 377.287,132.133 378.093 C 131.840 378.340,131.163 378.875,130.629 379.281 L 129.657 380.020 127.947 377.677 C 112.531 356.554,115.554 334.543,136.400 316.133 C 143.835 309.568,152.055 305.693,161.200 304.445 C 162.935 304.208,169.069 304.365,171.467 304.708 M232.897 405.030 L 239.789 411.927 232.846 418.963 L 225.902 426.000 218.949 419.072 C 215.125 415.261,212.027 412.064,212.065 411.967 C 212.221 411.563,225.489 398.140,225.735 398.137 C 225.883 398.135,229.106 401.237,232.897 405.030 " stroke="none" fill="#fd507e" fill-rule="evenodd"></path><path id="path1" d="M206.445 254.706 C 204.413 255.711,203.338 258.126,203.945 260.323 C 204.092 260.855,206.508 264.840,209.316 269.179 C 212.123 273.519,218.050 282.739,222.487 289.668 C 226.925 296.597,232.571 305.387,235.035 309.200 C 240.641 317.878,255.794 341.452,265.802 357.067 C 277.382 375.133,282.961 383.733,283.103 383.733 C 283.270 383.733,283.741 384.483,276.568 373.333 C 266.337 357.429,262.788 351.906,259.006 346.000 C 257.034 342.920,253.781 337.854,251.777 334.743 C 249.773 331.632,246.763 326.952,245.088 324.343 C 243.413 321.734,241.188 318.280,240.143 316.667 C 239.099 315.053,237.250 312.173,236.035 310.267 C 234.820 308.360,232.164 304.220,230.131 301.067 C 221.614 287.850,214.267 276.406,209.675 269.200 C 207.525 265.827,205.547 262.778,205.278 262.425 C 201.984 258.090,206.387 252.650,211.361 254.909 C 213.185 255.737,212.690 255.029,226.325 276.324 C 228.714 280.055,232.222 285.489,236.867 292.655 C 238.297 294.862,239.832 297.267,240.279 298.000 C 240.725 298.733,242.757 301.913,244.794 305.067 C 246.831 308.220,250.076 313.260,252.005 316.267 C 253.934 319.273,256.752 323.653,258.267 326.000 C 259.783 328.347,262.552 332.667,264.420 335.600 C 266.289 338.533,268.000 341.113,268.223 341.333 C 268.581 341.687,268.580 341.656,268.219 341.067 C 267.370 339.681,254.696 319.909,251.382 314.800 C 249.479 311.867,244.659 304.367,240.671 298.133 C 236.682 291.900,230.781 282.720,227.557 277.733 C 224.334 272.747,219.978 265.967,217.879 262.667 C 215.779 259.367,213.748 256.322,213.364 255.900 C 211.763 254.139,208.668 253.605,206.445 254.706 M139.534 255.228 C 138.134 255.921,137.502 256.725,134.529 261.600 C 133.232 263.727,129.473 269.787,126.175 275.067 C 122.878 280.347,118.596 287.247,116.661 290.400 C 114.726 293.553,109.669 301.713,105.423 308.533 C 101.178 315.353,93.757 327.293,88.934 335.067 C 84.110 342.840,76.844 354.540,72.788 361.067 C 68.731 367.593,63.969 375.279,62.207 378.146 C 60.444 381.012,56.607 387.192,53.679 391.879 C 49.418 398.700,43.396 408.437,40.575 413.067 C 40.352 413.433,40.305 413.613,40.471 413.467 C 40.637 413.320,45.014 406.360,50.198 398.000 C 55.382 389.640,63.829 376.020,68.969 367.733 C 85.096 341.731,86.759 339.052,89.740 334.267 C 92.057 330.546,99.435 318.661,104.021 311.261 C 108.446 304.121,107.592 305.497,120.447 284.800 C 125.867 276.073,131.784 266.533,133.597 263.600 C 138.521 255.632,139.011 255.135,142.000 255.091 C 146.045 255.030,148.289 258.569,146.447 262.103 C 145.934 263.088,139.559 273.460,137.742 276.267 C 137.410 276.780,135.062 280.560,132.525 284.667 C 129.987 288.773,127.352 293.033,126.667 294.133 C 124.447 297.702,105.584 328.097,98.535 339.467 C 84.143 362.676,76.859 374.404,75.597 376.400 C 75.133 377.133,73.756 379.353,72.536 381.333 C 71.317 383.313,68.678 387.573,66.672 390.800 C 64.666 394.027,61.426 399.247,59.474 402.400 C 57.521 405.553,54.279 410.773,52.270 414.000 C 42.938 428.989,40.269 433.372,40.743 432.933 C 40.901 432.787,43.658 428.407,46.869 423.200 C 50.081 417.993,54.548 410.793,56.798 407.200 C 59.047 403.607,63.068 397.127,65.733 392.800 C 68.399 388.473,72.713 381.522,75.320 377.353 C 77.927 373.183,81.504 367.423,83.268 364.553 C 85.032 361.682,88.758 355.673,91.549 351.200 C 94.339 346.727,98.923 339.347,101.735 334.800 C 106.653 326.849,110.962 319.906,128.796 291.200 C 139.306 274.283,145.169 264.814,146.375 262.807 C 149.389 257.796,144.743 252.649,139.534 255.228 M158.519 305.044 C 137.714 308.750,118.389 330.961,118.402 351.153 C 118.404 354.966,119.885 363.671,120.437 363.119 C 120.495 363.061,120.247 361.885,119.887 360.507 C 118.699 355.961,118.338 349.269,119.074 345.467 C 120.159 339.861,121.160 336.912,123.350 332.860 C 130.177 320.230,143.117 309.401,155.309 306.113 C 161.485 304.448,171.449 304.454,175.847 306.126 C 176.224 306.269,176.533 306.283,176.533 306.155 C 176.533 305.918,174.059 305.270,171.467 304.830 C 168.890 304.392,161.491 304.514,158.519 305.044 M176.822 306.242 C 176.883 306.301,178.112 306.832,179.553 307.422 C 188.838 311.224,196.237 319.244,199.356 328.890 C 199.838 330.380,200.240 331.404,200.249 331.164 C 200.445 326.244,192.423 314.868,185.558 310.330 C 182.422 308.256,175.624 305.075,176.822 306.242 M158.000 321.232 C 157.707 321.305,156.447 321.613,155.200 321.916 C 146.809 323.952,138.640 331.782,135.916 340.400 C 134.176 345.903,134.734 352.862,137.398 358.884 C 138.310 360.946,138.134 359.923,137.158 357.493 C 133.039 347.233,135.339 337.044,143.598 328.974 C 155.849 317.004,176.530 319.481,183.346 333.733 C 185.319 337.860,185.480 339.081,185.350 348.933 C 185.158 363.429,185.227 372.046,185.545 373.333 C 185.811 374.407,185.822 374.323,185.654 372.533 C 185.415 369.981,185.445 360.115,185.723 350.533 C 185.973 341.892,185.647 338.476,184.238 334.953 C 181.576 328.301,174.932 322.872,167.733 321.469 C 166.567 321.242,158.723 321.050,158.000 321.232 M200.298 332.187 C 200.281 332.510,200.387 333.350,200.534 334.054 C 200.682 334.757,200.916 336.353,201.054 337.600 L 201.306 339.867 201.171 337.467 C 201.040 335.125,200.362 331.020,200.298 332.187 M201.281 344.758 C 201.325 347.348,201.254 351.387,201.122 353.733 C 200.889 357.860,200.901 358.388,201.213 358.076 C 201.473 357.816,201.697 340.358,201.442 340.200 C 201.300 340.112,201.233 341.989,201.281 344.758 M268.698 342.160 C 268.972 342.657,275.997 353.633,279.518 359.067 C 280.849 361.120,284.938 367.480,288.605 373.200 C 292.273 378.920,296.553 385.580,298.116 388.000 C 299.680 390.420,301.532 393.300,302.233 394.400 C 302.933 395.500,304.748 398.320,306.266 400.667 C 307.785 403.013,311.026 408.053,313.470 411.867 C 320.961 423.557,321.817 424.865,322.268 425.307 C 322.508 425.541,320.344 422.073,317.459 417.600 C 310.809 407.288,296.041 384.304,284.990 367.067 C 273.828 349.656,269.077 342.328,268.738 342.000 C 268.549 341.817,268.536 341.868,268.698 342.160 M200.908 362.533 C 200.908 364.880,200.949 365.804,200.999 364.587 C 201.048 363.370,201.048 361.450,200.998 360.321 C 200.948 359.191,200.908 360.187,200.908 362.533 M138.400 360.953 C 138.400 361.230,140.585 364.895,141.780 366.624 C 142.423 367.555,142.976 368.407,143.008 368.518 C 143.065 368.716,141.964 369.694,139.844 371.333 C 138.633 372.269,130.731 378.583,130.111 379.110 C 129.312 379.789,124.209 371.901,121.939 366.478 C 120.589 363.254,120.033 362.509,121.215 365.508 C 122.811 369.557,126.613 376.108,128.983 378.895 L 129.745 379.791 136.539 374.389 C 140.276 371.418,143.375 368.953,143.425 368.913 C 143.476 368.872,142.742 367.660,141.794 366.219 C 140.846 364.779,139.752 362.970,139.364 362.200 C 138.730 360.942,138.400 360.516,138.400 360.953 M200.987 368.200 C 201.578 374.379,204.583 379.794,211.390 386.947 L 213.630 389.301 208.049 394.965 L 202.469 400.630 200.793 399.182 C 196.674 395.622,191.010 388.431,189.188 384.450 C 188.798 383.597,188.423 382.955,188.355 383.023 C 187.486 383.892,194.252 393.149,199.579 398.378 L 202.410 401.156 205.938 397.516 C 207.879 395.515,210.476 392.863,211.710 391.623 L 213.953 389.369 212.029 387.309 C 204.633 379.390,201.344 373.471,201.335 368.067 C 201.334 367.443,201.228 366.933,201.099 366.933 C 200.971 366.933,200.920 367.503,200.987 368.200 M186.153 376.304 C 186.125 376.919,187.405 381.254,187.864 382.098 C 188.377 383.042,188.367 382.620,187.847 381.391 C 187.616 380.846,187.145 379.380,186.800 378.133 C 186.455 376.887,186.164 376.063,186.153 376.304 M283.514 384.533 C 284.401 385.980,297.216 405.967,302.664 414.400 C 305.839 419.313,309.488 424.983,310.774 427.000 C 312.060 429.017,313.170 430.667,313.239 430.667 C 313.308 430.667,313.277 430.517,313.169 430.333 C 312.746 429.613,298.716 407.729,293.466 399.600 C 291.951 397.253,289.182 392.933,287.313 390.000 C 285.445 387.067,283.733 384.487,283.511 384.267 C 283.153 383.913,283.153 383.944,283.514 384.533 M218.825 405.122 C 215.218 408.819,212.267 411.910,212.267 411.991 C 212.267 412.071,215.327 415.196,219.067 418.934 L 225.868 425.731 232.733 418.866 L 239.597 412.001 232.801 405.201 C 229.062 401.460,225.864 398.400,225.694 398.400 C 225.523 398.400,222.432 401.425,218.825 405.122 M232.572 405.255 L 239.195 411.842 234.331 416.754 C 231.656 419.455,228.642 422.501,227.634 423.523 L 225.801 425.380 219.116 418.709 L 212.430 412.038 219.069 405.352 C 222.720 401.675,225.762 398.667,225.829 398.667 C 225.895 398.667,228.930 401.631,232.572 405.255 M33.722 424.024 C 27.285 434.345,26.699 435.428,26.678 437.044 C 26.662 438.286,26.975 437.890,27.076 436.542 C 27.156 435.472,28.238 433.242,29.991 430.533 C 30.466 429.800,32.813 426.020,35.207 422.133 C 37.600 418.247,39.732 414.797,39.943 414.467 C 40.155 414.137,40.267 413.867,40.192 413.867 C 40.118 413.867,37.206 418.437,33.722 424.024 M324.592 429.070 C 324.926 429.659,325.473 430.469,325.806 430.870 C 326.139 431.272,325.915 430.790,325.309 429.800 C 324.115 427.850,323.603 427.329,324.592 429.070 " stroke="none" fill="#d97ea8" fill-rule="evenodd"></path><path id="path2" d="M165.404 304.458 C 165.809 304.519,166.409 304.518,166.737 304.454 C 167.065 304.391,166.733 304.341,166.000 304.343 C 165.267 304.345,164.998 304.397,165.404 304.458 M201.134 359.067 C 201.137 359.653,201.191 359.862,201.255 359.530 C 201.319 359.199,201.317 358.719,201.250 358.464 C 201.183 358.209,201.131 358.480,201.134 359.067 M210.386 393.000 L 209.467 394.000 210.467 393.081 C 211.397 392.226,211.589 392.000,211.386 392.000 C 211.341 392.000,210.891 392.450,210.386 393.000 M208.121 395.267 L 207.067 396.400 208.200 395.346 C 208.823 394.766,209.333 394.256,209.333 394.213 C 209.333 394.011,209.101 394.213,208.121 395.267 M214.652 409.267 L 213.733 410.267 214.733 409.348 C 215.664 408.492,215.856 408.267,215.652 408.267 C 215.608 408.267,215.158 408.717,214.652 409.267 M237.867 410.217 C 237.867 410.263,238.257 410.653,238.733 411.083 L 239.600 411.867 238.817 411.000 C 238.087 410.192,237.867 410.011,237.867 410.217 M212.659 411.208 L 211.886 412.015 214.141 414.208 L 216.396 416.400 214.276 414.205 L 212.157 412.011 212.928 411.205 C 213.353 410.762,213.640 410.400,213.566 410.400 C 213.493 410.400,213.085 410.763,212.659 411.208 " stroke="none" fill="#e66c9c" fill-rule="evenodd"></path><path id="path3" d="M201.134 361.733 C 201.137 362.320,201.191 362.529,201.255 362.197 C 201.319 361.865,201.317 361.385,201.250 361.130 C 201.183 360.875,201.131 361.147,201.134 361.733 M184.885 365.067 C 184.885 366.020,184.934 366.410,184.993 365.933 C 185.052 365.457,185.052 364.677,184.993 364.200 C 184.934 363.723,184.885 364.113,184.885 365.067 M201.134 364.933 C 201.137 365.520,201.191 365.729,201.255 365.397 C 201.319 365.065,201.317 364.585,201.250 364.330 C 201.183 364.075,201.131 364.347,201.134 364.933 M234.000 406.400 C 235.019 407.427,235.912 408.267,235.986 408.267 C 236.059 408.267,235.285 407.427,234.267 406.400 C 233.248 405.373,232.354 404.533,232.281 404.533 C 232.208 404.533,232.981 405.373,234.000 406.400 M219.600 419.733 C 220.766 420.907,221.781 421.867,221.854 421.867 C 221.927 421.867,221.033 420.907,219.867 419.733 C 218.700 418.560,217.686 417.600,217.613 417.600 C 217.539 417.600,218.434 418.560,219.600 419.733 M226.517 425.133 L 225.733 426.000 226.600 425.217 C 227.077 424.786,227.467 424.396,227.467 424.350 C 227.467 424.144,227.247 424.325,226.517 425.133 " stroke="none" fill="#ec6691" fill-rule="evenodd"></path><path id="path4" d="M161.670 321.525 C 162.076 321.586,162.676 321.584,163.004 321.521 C 163.332 321.458,163.000 321.408,162.267 321.410 C 161.533 321.412,161.265 321.463,161.670 321.525 M185.395 344.800 C 185.395 345.313,185.450 345.523,185.517 345.267 C 185.584 345.010,185.584 344.590,185.517 344.333 C 185.450 344.077,185.395 344.287,185.395 344.800 M201.673 346.400 C 201.673 347.060,201.725 347.330,201.788 347.000 C 201.852 346.670,201.852 346.130,201.788 345.800 C 201.725 345.470,201.673 345.740,201.673 346.400 M201.662 348.533 C 201.662 349.047,201.717 349.257,201.784 349.000 C 201.851 348.743,201.851 348.323,201.784 348.067 C 201.717 347.810,201.662 348.020,201.662 348.533 M185.401 348.933 C 185.404 349.520,185.458 349.729,185.522 349.397 C 185.586 349.065,185.583 348.585,185.517 348.330 C 185.450 348.075,185.398 348.347,185.401 348.933 M118.195 352.533 C 118.195 353.047,118.250 353.257,118.317 353.000 C 118.384 352.743,118.384 352.323,118.317 352.067 C 118.250 351.810,118.195 352.020,118.195 352.533 M184.867 362.533 C 184.870 363.120,184.925 363.329,184.989 362.997 C 185.052 362.665,185.050 362.185,184.983 361.930 C 184.916 361.675,184.864 361.947,184.867 362.533 M184.862 368.000 C 184.862 368.513,184.917 368.723,184.984 368.467 C 185.051 368.210,185.051 367.790,184.984 367.533 C 184.917 367.277,184.862 367.487,184.862 368.000 M199.733 398.800 C 200.231 399.313,200.698 399.733,200.771 399.733 C 200.845 399.733,200.498 399.313,200.000 398.800 C 199.502 398.287,199.035 397.867,198.962 397.867 C 198.889 397.867,199.236 398.287,199.733 398.800 M228.529 400.867 C 230.066 402.443,231.356 403.733,231.395 403.733 C 231.588 403.733,231.263 403.392,228.600 400.795 L 225.733 398.000 228.529 400.867 M223.321 400.333 L 222.267 401.467 223.400 400.413 C 224.454 399.432,224.656 399.200,224.454 399.200 C 224.411 399.200,223.901 399.710,223.321 400.333 M233.600 418.000 C 232.952 418.660,232.482 419.200,232.556 419.200 C 232.629 419.200,233.219 418.660,233.867 418.000 C 234.514 417.340,234.984 416.800,234.911 416.800 C 234.838 416.800,234.248 417.340,233.600 418.000 M231.317 420.333 L 230.533 421.200 231.400 420.417 C 231.877 419.986,232.267 419.596,232.267 419.550 C 232.267 419.344,232.047 419.525,231.317 420.333 M223.600 423.733 C 224.619 424.760,225.512 425.600,225.586 425.600 C 225.659 425.600,224.885 424.760,223.867 423.733 C 222.848 422.707,221.954 421.867,221.881 421.867 C 221.808 421.867,222.581 422.707,223.600 423.733 M26.462 436.800 C 26.462 437.313,26.517 437.523,26.584 437.267 C 26.651 437.010,26.651 436.590,26.584 436.333 C 26.517 436.077,26.462 436.287,26.462 436.800 " stroke="none" fill="#f45c8c" fill-rule="evenodd"></path></g></svg>