<?xml version="1.0" encoding="utf-8"?>
<!-- Generator: Adobe Illustrator 22.1.0, SVG Export Plug-In . SVG Version: 6.00 Build 0)  -->
<svg version="1.1" id="图层_1" xmlns="http://www.w3.org/2000/svg" xmlns:xlink="http://www.w3.org/1999/xlink" x="0px" y="0px"
	 viewBox="0 0 424.3 453.1" style="enable-background:new 0 0 424.3 453.1;" xml:space="preserve">
<style type="text/css">
	.st0{fill:#606060;}
	.st1{fill:#FD507E;}
</style>
<title>no-loop</title>
<path class="st0" d="M284.1,226.1c-0.1-6.1-1.9-14.4-2.9-16.4s-1.8-3.7-5.9-6.4s-8.6-2.3-12.9-5.3c-0.7-0.5-1.3-1.1-1.8-1.7
	c-2-1.9-3.1-4.6-3.1-7.3c-0.5-5.2,2.1-8.9,1.9-13.8s-1.3-6.5-2.6-8.4s-9.1-8.1-14.4-11.1s-13.4-5.5-15.7-5.7s-4.1-0.3-8.5,1.9
	s-6,5.8-11.1,8.5c-0.7,0.4-1.5,0.7-2.3,0.9c-2.7,0.7-5.6,0.2-8-1.2c-4.8-2.2-6.6-6.3-11-8.5s-6.3-2.2-8.5-2s-11.6,3.8-16.8,7
	s-11.5,8.9-12.8,10.7s-2.4,3.4-2.6,8.4c-0.3,5,2.4,8.6,1.8,13.8c0,0.9-0.1,1.8-0.3,2.6c-0.8,2.6-2.6,4.8-5,6.2
	c-4.3,3-8.7,2.6-12.9,5.3s-5,4.4-6,6.4s-2.5,11.9-2.4,18s1.9,14.4,2.9,16.4s1.8,3.7,5.9,6.4c4.2,2.7,8.6,2.3,12.9,5.3
	c0.8,0.5,1.6,1.1,2.3,1.7c1.8,2,2.7,4.6,2.7,7.3c0.5,5.2-2.1,8.9-1.9,13.8c0.2,5,1.3,6.5,2.6,8.4s9.1,8.1,14.4,11.1
	s13.4,5.5,15.7,5.7s4.1,0.3,8.5-1.9s6.3-6.3,11.1-8.5c0.7-0.4,1.5-0.7,2.2-0.9c2.7-0.7,5.6-0.3,8,1.1c4.8,2.2,6.6,6.3,11,8.5
	s6.3,2.2,8.5,2s11.6-3.8,16.8-7s11.5-8.9,12.8-10.7c1.3-1.8,2.4-3.4,2.6-8.4s-2.4-8.6-1.8-13.8c0.1-0.9,0.3-1.8,0.5-2.6
	c0.7-2.6,2.4-4.9,4.8-6.2c4.3-3,8.7-2.6,12.9-5.3s5-4.4,6-6.4S284.2,232.2,284.1,226.1z M202.4,261.8c-19.3,0-35-15.7-35-35
	s15.7-35,35-35s35,15.7,35,35S221.8,261.8,202.4,261.8L202.4,261.8z"/>
<path class="st1" d="M420.1,154.2l-166.3-1.6c-2.3,0-4.1-1.9-4.1-4.2c0-0.8,0.2-1.5,0.6-2.2l23.7-37.6c1.2-1.9,0.6-4.5-1.3-5.7
	l-0.1-0.1c-69.8-40-158.7-15.9-198.8,53.9S58,315.4,127.7,355.4s158.7,15.9,198.8-53.9c20.3-35.5,24.8-77.8,12.4-116.8
	c-0.7-2.2,0.5-4.5,2.7-5.2c0.4-0.1,0.8-0.2,1.3-0.2h47.9c1.9,0,3.5,1.3,4,3.1C420.4,290,354.1,398,246.6,423.7S31.1,383,5.5,275.5
	S46.1,60.1,153.6,34.4c50.5-12.1,103.8-4,148.5,22.5c1.9,1.1,4.4,0.5,5.6-1.4l29.9-47.6c1.2-1.9,3.8-2.5,5.7-1.3
	c0.6,0.4,1.1,0.9,1.4,1.5l79,139.9c1.1,2,0.4,4.5-1.6,5.6C421.5,154,420.8,154.2,420.1,154.2z"/>
</svg>
