<svg id="svg" version="1.1" xmlns="http://www.w3.org/2000/svg" xmlns:xlink="http://www.w3.org/1999/xlink" width="400" height="398.57312722948876" viewBox="0, 0, 400,398.57312722948876"><g id="svgg"><path id="path0" d="M317.750 0.785 C 317.380 1.217,316.710 2.249,316.260 3.079 C 315.810 3.908,314.547 5.932,313.453 7.577 C 312.359 9.222,311.342 10.837,311.194 11.167 C 311.047 11.496,310.802 11.854,310.651 11.964 C 310.500 12.074,309.990 12.926,309.517 13.858 C 309.044 14.791,308.495 15.553,308.296 15.553 C 308.097 15.553,307.617 16.271,307.230 17.149 C 306.843 18.026,306.371 18.744,306.181 18.744 C 305.991 18.744,305.931 18.899,306.049 19.089 C 306.166 19.279,305.908 19.756,305.474 20.148 C 305.041 20.540,304.686 21.077,304.686 21.340 C 304.686 21.603,304.256 22.282,303.731 22.848 C 303.205 23.415,302.876 23.980,303.000 24.103 C 303.123 24.226,303.014 24.327,302.758 24.327 C 302.502 24.327,302.293 24.559,302.293 24.842 C 302.293 25.368,298.806 31.217,297.842 32.309 C 297.548 32.641,297.085 33.410,296.811 34.018 C 296.538 34.627,296.132 35.342,295.909 35.608 C 295.205 36.448,291.924 41.527,291.924 41.777 C 291.924 42.294,288.974 46.263,288.568 46.292 C 288.330 46.309,287.817 46.383,287.427 46.457 C 286.678 46.600,282.220 44.533,282.556 44.198 C 282.663 44.090,282.527 43.994,282.253 43.985 C 281.979 43.976,280.319 43.164,278.564 42.182 C 276.810 41.200,274.970 40.268,274.477 40.111 C 273.983 39.955,273.579 39.659,273.579 39.455 C 273.579 39.250,273.445 39.118,273.280 39.162 C 273.116 39.206,271.944 38.757,270.676 38.165 C 269.408 37.573,268.197 37.089,267.984 37.089 C 267.771 37.089,267.597 36.939,267.597 36.756 C 267.597 36.574,267.373 36.418,267.099 36.410 C 266.825 36.402,264.694 35.573,262.365 34.569 C 260.036 33.565,257.659 32.625,257.084 32.481 C 256.508 32.336,256.124 32.078,256.230 31.907 C 256.336 31.736,256.200 31.616,255.928 31.640 C 255.415 31.686,249.257 29.773,247.856 29.133 C 246.483 28.505,240.037 26.684,236.291 25.867 C 234.317 25.436,232.433 24.971,232.104 24.833 C 231.775 24.695,231.236 24.538,230.907 24.483 C 230.578 24.428,229.860 24.279,229.312 24.150 C 228.764 24.022,227.777 23.835,227.119 23.736 C 226.461 23.637,224.845 23.363,223.529 23.126 C 222.213 22.890,220.419 22.607,219.541 22.497 C 217.786 22.277,216.351 22.026,216.351 21.939 C 216.351 21.908,215.753 21.825,215.023 21.753 C 209.925 21.254,207.471 20.995,206.780 20.882 C 201.779 20.069,179.051 20.399,171.286 21.397 C 170.409 21.510,168.883 21.632,167.896 21.669 C 166.909 21.705,166.002 21.869,165.879 22.033 C 165.757 22.197,164.770 22.423,163.686 22.534 C 162.602 22.646,160.638 22.919,159.322 23.140 C 158.006 23.362,156.570 23.603,156.132 23.676 C 155.693 23.749,155.015 23.946,154.624 24.115 C 154.234 24.284,153.426 24.448,152.829 24.481 C 152.233 24.514,151.565 24.649,151.346 24.781 C 151.127 24.913,149.332 25.333,147.358 25.715 C 145.384 26.098,143.589 26.541,143.370 26.700 C 143.151 26.860,141.356 27.411,139.382 27.925 C 137.408 28.439,135.668 29.046,135.515 29.274 C 135.363 29.502,135.110 29.560,134.954 29.404 C 134.797 29.247,134.474 29.266,134.234 29.445 C 133.995 29.624,132.632 30.102,131.206 30.508 C 129.781 30.914,128.398 31.410,128.133 31.610 C 127.869 31.810,127.437 31.840,127.174 31.678 C 126.901 31.509,126.800 31.551,126.939 31.776 C 127.162 32.135,123.026 33.750,122.333 33.575 C 122.168 33.534,122.034 33.660,122.034 33.856 C 122.034 34.052,121.755 34.319,121.415 34.449 C 121.004 34.607,120.894 34.528,121.088 34.214 C 121.249 33.954,120.854 34.113,120.212 34.568 C 119.569 35.022,118.460 35.521,117.747 35.675 C 117.034 35.829,116.451 36.131,116.451 36.346 C 116.451 36.561,116.244 36.609,115.991 36.453 C 115.739 36.297,115.335 36.438,115.094 36.766 C 114.853 37.094,113.938 37.592,113.061 37.874 C 112.183 38.156,111.152 38.660,110.768 38.996 C 110.384 39.331,110.070 39.475,110.070 39.315 C 110.070 39.156,109.788 39.308,109.443 39.652 C 109.098 39.997,108.569 40.279,108.267 40.279 C 107.964 40.279,106.919 40.818,105.944 41.476 C 104.969 42.134,103.883 42.672,103.531 42.672 C 103.179 42.672,102.891 42.809,102.891 42.976 C 102.891 43.144,102.536 43.458,102.101 43.674 C 98.347 45.545,96.909 46.368,96.909 46.646 C 96.909 46.826,96.461 47.085,95.912 47.223 C 94.243 47.641,94.742 48.490,99.160 52.743 C 101.495 54.990,105.462 58.804,107.975 61.216 C 110.489 63.629,115.577 68.564,119.283 72.183 C 134.247 86.799,132.780 85.767,136.275 84.135 C 138.848 82.933,141.622 81.686,143.370 80.946 C 143.809 80.760,144.616 80.491,145.165 80.348 C 145.713 80.205,147.263 79.657,148.608 79.132 C 149.954 78.607,152.018 77.974,153.195 77.726 C 154.371 77.478,155.518 77.128,155.743 76.948 C 155.968 76.769,156.596 76.548,157.139 76.458 C 157.681 76.368,158.395 76.193,158.724 76.069 C 159.852 75.644,162.988 74.995,165.143 74.739 C 166.328 74.599,167.478 74.344,167.697 74.173 C 167.916 74.002,168.948 73.753,169.990 73.621 C 171.032 73.488,172.647 73.284,173.579 73.168 C 174.511 73.051,175.902 72.875,176.670 72.777 C 187.572 71.387,209.079 72.143,215.952 74.158 C 216.610 74.351,217.866 74.620,218.744 74.755 C 220.656 75.050,224.093 75.790,224.925 76.086 C 225.254 76.202,225.677 76.263,225.865 76.221 C 226.052 76.178,226.411 76.309,226.662 76.512 C 226.913 76.715,228.734 77.281,230.708 77.770 C 232.682 78.260,234.387 78.787,234.497 78.942 C 234.606 79.097,236.258 79.707,238.166 80.297 C 240.075 80.887,241.745 81.546,241.879 81.762 C 242.012 81.977,242.469 82.154,242.895 82.154 C 243.321 82.154,243.669 82.303,243.669 82.486 C 243.669 82.669,243.927 82.818,244.243 82.818 C 244.815 82.818,249.345 84.861,251.246 85.976 C 251.795 86.298,253.320 87.069,254.636 87.689 C 257.679 89.125,259.358 90.684,259.347 92.066 C 259.339 93.268,256.707 97.850,256.274 97.417 C 256.118 97.261,256.095 97.408,256.224 97.744 C 256.358 98.092,256.109 98.672,255.647 99.090 C 255.201 99.494,254.835 100.066,254.835 100.361 C 254.835 100.656,254.697 100.897,254.529 100.897 C 254.360 100.897,253.616 102.019,252.876 103.390 C 252.136 104.761,251.074 106.376,250.516 106.979 C 249.958 107.582,249.656 108.076,249.845 108.076 C 250.034 108.076,249.807 108.482,249.341 108.978 C 248.875 109.474,248.118 110.731,247.658 111.770 C 247.198 112.809,246.651 113.659,246.442 113.659 C 246.233 113.659,246.062 113.902,246.062 114.199 C 246.062 114.496,245.622 115.214,245.084 115.794 C 244.546 116.375,244.196 116.849,244.305 116.849 C 244.415 116.849,243.913 117.702,243.190 118.744 C 241.723 120.856,241.243 121.640,240.263 123.529 C 239.893 124.242,239.420 124.826,239.213 124.826 C 239.006 124.826,238.947 125.005,239.083 125.224 C 239.218 125.444,239.184 125.623,239.006 125.623 C 238.547 125.623,236.666 129.277,236.807 129.895 C 236.872 130.178,236.753 130.409,236.543 130.409 C 235.405 130.409,237.683 134.257,239.173 134.850 C 239.889 135.135,245.556 135.337,255.234 135.422 C 263.460 135.495,277.458 135.662,286.341 135.793 C 349.894 136.734,394.212 136.917,395.490 136.245 C 397.460 135.209,399.248 130.010,397.633 130.010 C 397.477 130.010,396.914 129.196,396.382 128.202 C 395.482 126.521,395.122 125.874,393.618 123.230 C 393.306 122.682,393.089 122.099,393.136 121.934 C 393.182 121.770,393.063 121.635,392.870 121.635 C 392.677 121.635,392.284 121.052,391.995 120.339 C 391.707 119.626,391.362 118.953,391.228 118.843 C 390.776 118.473,389.165 115.653,389.406 115.653 C 389.537 115.653,389.022 114.749,388.262 113.644 C 387.502 112.539,386.655 111.013,386.381 110.254 C 386.106 109.495,385.747 108.873,385.582 108.873 C 385.417 108.873,384.916 108.111,384.468 107.178 C 384.021 106.246,382.938 104.227,382.062 102.692 C 381.187 101.157,380.276 99.452,380.038 98.905 C 379.801 98.358,379.195 97.370,378.691 96.710 C 378.188 96.051,377.370 94.614,376.873 93.518 C 376.376 92.422,375.838 91.436,375.678 91.326 C 375.517 91.216,374.701 89.781,373.863 88.136 C 373.026 86.491,371.867 84.427,371.288 83.549 C 370.709 82.672,369.907 81.236,369.506 80.359 C 369.104 79.482,368.646 78.674,368.487 78.564 C 368.328 78.455,367.691 77.378,367.071 76.171 C 366.450 74.965,365.835 73.888,365.703 73.779 C 365.406 73.531,359.639 63.107,359.202 62.028 C 359.027 61.594,358.741 61.144,358.567 61.028 C 358.393 60.912,357.760 59.832,357.160 58.628 C 356.559 57.424,355.948 56.347,355.801 56.235 C 355.653 56.123,355.099 55.135,354.568 54.038 C 354.038 52.941,353.480 51.954,353.328 51.844 C 352.866 51.510,351.705 49.053,352.009 49.053 C 352.165 49.053,351.839 48.559,351.285 47.956 C 350.730 47.353,350.047 46.276,349.766 45.563 C 349.485 44.850,349.068 44.267,348.838 44.267 C 348.609 44.267,348.521 44.167,348.643 44.045 C 348.766 43.923,347.180 40.862,345.121 37.242 C 343.061 33.623,341.376 30.492,341.376 30.286 C 341.376 30.079,341.186 29.910,340.954 29.910 C 340.721 29.910,340.633 29.746,340.757 29.546 C 340.881 29.345,340.838 29.121,340.662 29.047 C 340.485 28.973,339.942 28.106,339.455 27.119 C 338.967 26.132,337.763 24.006,336.779 22.394 C 335.795 20.783,334.246 18.091,333.338 16.412 C 332.429 14.733,331.381 12.911,331.008 12.363 C 330.635 11.815,329.999 10.603,329.594 9.671 C 329.190 8.739,328.704 7.976,328.514 7.976 C 328.324 7.976,328.279 7.797,328.415 7.577 C 328.550 7.358,328.498 7.178,328.299 7.178 C 328.100 7.178,327.604 6.371,327.197 5.384 C 326.790 4.397,326.326 3.589,326.166 3.589 C 326.007 3.589,325.769 3.250,325.637 2.836 C 324.772 0.111,319.501 -1.259,317.750 0.785 M46.106 23.554 C 44.604 23.726,43.923 24.047,43.143 24.950 C 42.586 25.594,41.983 26.077,41.803 26.022 C 41.623 25.967,41.476 26.137,41.476 26.399 C 41.476 26.661,39.211 29.101,36.443 31.821 C 33.676 34.541,31.550 36.542,31.719 36.268 C 31.919 35.945,31.865 35.870,31.567 36.054 C 31.314 36.210,31.107 36.557,31.107 36.824 C 31.107 37.426,29.665 38.704,29.346 38.385 C 29.218 38.257,29.113 38.418,29.113 38.742 C 29.113 39.438,26.987 41.580,26.592 41.282 C 26.443 41.169,26.406 41.191,26.509 41.331 C 26.736 41.638,19.934 48.644,19.517 48.533 C 19.355 48.490,19.222 48.606,19.221 48.791 C 19.220 49.413,17.031 51.420,16.627 51.170 C 16.407 51.035,16.339 51.103,16.475 51.323 C 16.610 51.543,16.189 52.232,15.539 52.855 C 14.889 53.478,14.356 53.820,14.355 53.614 C 14.355 53.408,13.998 53.824,13.564 54.536 C 13.129 55.249,12.546 55.839,12.269 55.847 C 10.463 55.899,9.372 59.440,9.372 65.244 L 9.372 70.866 13.161 74.515 C 15.244 76.522,17.012 78.164,17.088 78.165 C 17.473 78.167,19.402 80.565,19.190 80.777 C 19.054 80.913,19.145 80.964,19.392 80.891 C 19.638 80.818,21.949 82.866,24.527 85.444 C 27.105 88.021,29.293 90.130,29.389 90.130 C 29.485 90.130,32.170 92.687,35.355 95.813 C 41.138 101.488,41.911 102.237,48.265 108.321 C 50.124 110.101,52.304 112.254,53.110 113.106 C 53.916 113.959,55.352 115.334,56.301 116.162 C 58.464 118.049,74.328 133.367,80.866 139.880 C 83.563 142.567,85.840 144.766,85.927 144.766 C 86.013 144.766,88.334 146.964,91.085 149.651 C 93.835 152.338,99.438 157.767,103.536 161.715 C 107.633 165.663,112.709 170.571,114.815 172.622 C 116.921 174.673,121.853 179.429,125.775 183.190 C 129.697 186.952,134.759 191.825,137.023 194.018 C 139.288 196.211,144.215 200.967,147.972 204.586 C 151.729 208.205,156.657 212.961,158.921 215.155 C 161.186 217.348,166.212 222.193,170.090 225.922 C 173.968 229.651,179.805 235.304,183.060 238.485 C 186.315 241.665,191.983 247.139,195.657 250.648 C 202.660 257.339,209.722 264.157,216.931 271.186 C 219.293 273.490,224.683 278.694,228.909 282.752 C 233.134 286.810,238.902 292.402,241.725 295.178 C 244.549 297.955,246.859 300.172,246.859 300.104 C 246.859 300.036,247.667 300.799,248.654 301.801 C 249.641 302.802,250.449 303.781,250.449 303.978 C 250.449 304.174,250.596 304.243,250.777 304.131 C 250.958 304.020,252.932 305.797,255.164 308.081 C 257.396 310.364,259.222 312.160,259.222 312.070 C 259.222 311.980,262.139 314.776,265.703 318.284 C 269.267 321.792,272.576 324.957,273.057 325.319 C 273.537 325.680,273.841 326.121,273.731 326.298 C 273.622 326.475,273.772 326.620,274.065 326.620 C 274.358 326.620,275.594 327.652,276.812 328.913 C 278.030 330.174,282.219 334.257,286.121 337.986 C 290.023 341.715,295.249 346.740,297.733 349.153 C 300.218 351.565,305.238 356.411,308.889 359.920 C 312.540 363.430,317.699 368.410,320.352 370.987 C 323.006 373.564,325.245 375.673,325.329 375.673 C 325.660 375.673,326.620 376.838,326.620 377.240 C 326.620 377.475,326.785 377.667,326.986 377.667 C 327.549 377.667,330.606 380.727,330.324 381.008 C 330.188 381.145,330.263 381.256,330.490 381.256 C 330.718 381.256,331.823 382.146,332.946 383.234 C 334.068 384.322,335.303 385.369,335.689 385.561 C 336.717 386.073,344.965 385.663,344.965 385.100 C 344.965 384.850,345.505 384.108,346.166 383.450 C 347.818 381.804,349.945 379.472,352.542 376.460 C 353.749 375.062,355.095 373.510,355.533 373.012 C 355.972 372.514,357.139 371.183,358.126 370.053 C 359.113 368.924,360.459 367.408,361.117 366.685 C 361.775 365.961,362.659 364.951,363.081 364.439 C 364.517 362.702,370.215 356.269,372.558 353.739 C 373.269 352.971,374.747 351.266,375.843 349.950 C 376.939 348.634,378.322 347.064,378.917 346.461 C 379.738 345.628,379.966 345.053,379.864 344.068 C 379.790 343.355,379.715 341.369,379.696 339.655 L 379.661 336.537 375.193 332.177 C 372.736 329.779,370.686 327.817,370.637 327.817 C 370.588 327.817,367.090 324.452,362.863 320.339 C 348.939 306.790,346.371 304.313,345.403 303.498 C 344.876 303.055,344.586 302.692,344.758 302.692 C 344.931 302.692,344.555 302.288,343.923 301.795 C 343.291 301.301,340.530 298.723,337.788 296.065 C 335.045 293.408,330.110 288.624,326.820 285.435 C 316.235 275.176,313.858 272.896,313.858 273.002 C 313.858 273.060,312.273 271.553,310.335 269.654 C 304.959 264.386,290.081 249.979,286.939 247.000 C 285.404 245.544,279.661 240.008,274.177 234.699 C 257.444 218.497,254.375 215.566,253.796 215.234 C 253.491 215.059,253.240 214.655,253.240 214.337 C 253.240 214.019,253.076 213.759,252.876 213.759 C 252.675 213.759,251.901 213.175,251.155 212.463 C 243.553 205.198,231.597 193.669,226.652 188.833 C 223.288 185.543,218.811 181.236,216.704 179.262 C 214.597 177.288,212.579 175.339,212.219 174.931 C 211.087 173.645,202.070 164.960,198.903 162.105 C 197.861 161.165,197.009 160.200,197.009 159.959 C 197.009 159.718,196.832 159.521,196.615 159.521 C 196.398 159.521,192.764 156.138,188.539 152.002 C 184.314 147.866,179.992 143.694,178.934 142.730 C 177.876 141.766,174.077 138.106,170.493 134.596 C 166.909 131.087,162.712 127.065,161.167 125.658 C 159.622 124.252,158.468 122.923,158.602 122.705 C 158.737 122.488,158.671 122.418,158.456 122.551 C 158.241 122.684,157.156 121.860,156.045 120.719 C 154.935 119.578,150.658 115.414,146.541 111.466 C 142.424 107.517,136.753 102.044,133.939 99.302 C 120.570 86.277,114.075 80.047,113.298 79.503 C 112.831 79.176,112.553 78.741,112.679 78.537 C 112.805 78.333,112.687 78.166,112.417 78.166 C 112.146 78.166,109.591 75.877,106.739 73.081 C 97.695 64.213,93.928 60.565,87.898 54.835 C 80.795 48.086,74.192 41.715,65.886 33.599 C 62.463 30.254,59.635 27.517,59.603 27.517 C 59.571 27.517,58.528 26.517,57.286 25.295 L 55.027 23.072 51.542 23.201 C 49.624 23.272,47.178 23.431,46.106 23.554 M34.297 109.296 C 34.297 109.528,34.159 109.632,33.989 109.528 C 33.820 109.423,33.354 110.130,32.953 111.099 C 32.502 112.190,32.050 112.760,31.765 112.597 C 31.513 112.453,31.425 112.468,31.571 112.630 C 31.716 112.792,31.223 114.079,30.475 115.489 C 28.470 119.269,28.150 119.816,27.782 120.084 C 27.599 120.219,27.443 120.488,27.436 120.683 C 27.428 120.877,27.235 121.486,27.006 122.034 C 26.778 122.582,26.622 123.170,26.659 123.341 C 26.697 123.512,26.456 123.755,26.125 123.882 C 25.794 124.009,25.523 124.346,25.523 124.631 C 25.523 124.916,25.181 125.839,24.763 126.682 C 23.545 129.140,22.732 131.094,22.732 131.566 C 22.732 131.807,22.542 132.004,22.309 132.004 C 22.077 132.004,22.005 132.195,22.149 132.428 C 22.293 132.661,22.146 133.155,21.821 133.525 C 21.496 133.895,21.099 134.646,20.937 135.194 C 20.535 136.559,18.038 143.071,17.299 144.681 C 16.969 145.402,16.625 146.299,16.536 146.675 C 15.714 150.142,14.957 152.586,14.639 152.797 C 14.428 152.937,14.366 153.232,14.503 153.452 C 14.639 153.673,14.505 154.456,14.205 155.192 C 13.906 155.928,13.427 157.733,13.142 159.203 C 12.856 160.673,12.484 161.790,12.314 161.685 C 12.145 161.580,12.069 161.824,12.147 162.228 C 12.225 162.631,11.857 164.744,11.329 166.924 C 10.802 169.104,10.370 171.370,10.370 171.961 C 10.369 172.551,10.175 173.154,9.938 173.300 C 9.701 173.447,9.608 173.969,9.731 174.461 C 9.855 174.953,9.843 175.468,9.705 175.606 C 9.567 175.743,9.409 176.353,9.353 176.961 C 9.296 177.569,9.151 178.604,9.030 179.262 C 7.873 185.558,7.785 222.104,8.910 229.113 C 9.298 231.525,9.605 233.930,9.593 234.455 C 9.580 234.981,9.733 235.609,9.930 235.851 C 10.128 236.093,10.422 237.547,10.582 239.083 C 10.742 240.618,11.059 242.323,11.286 242.871 C 11.513 243.420,11.724 244.227,11.755 244.666 C 11.786 245.105,11.924 245.733,12.061 246.062 C 12.483 247.073,14.435 254.980,14.497 255.932 C 14.530 256.426,14.691 256.830,14.855 256.830 C 15.020 256.830,15.155 257.098,15.155 257.426 C 15.155 257.754,16.065 260.670,17.178 263.906 C 18.290 267.143,19.250 269.970,19.310 270.189 C 19.370 270.409,19.644 271.127,19.919 271.785 C 20.195 272.443,20.673 273.683,20.983 274.542 C 21.293 275.400,21.745 276.342,21.988 276.636 C 22.232 276.929,22.274 277.171,22.083 277.175 C 21.891 277.178,21.923 277.313,22.154 277.474 C 22.385 277.635,22.903 278.664,23.305 279.761 C 23.708 280.857,24.310 282.069,24.643 282.453 C 24.976 282.836,25.124 283.151,24.971 283.151 C 24.819 283.151,25.419 284.526,26.305 286.208 C 27.191 287.890,27.916 289.446,27.916 289.666 C 27.916 289.887,28.170 290.350,28.480 290.696 C 28.790 291.043,29.750 292.672,30.613 294.317 C 33.227 299.299,33.871 300.434,34.220 300.671 C 34.404 300.795,35.572 302.602,36.815 304.686 C 38.058 306.770,39.481 308.993,39.976 309.626 C 40.472 310.259,40.941 310.945,41.020 311.149 C 41.098 311.354,41.514 311.913,41.945 312.391 C 43.417 314.026,45.862 317.424,45.862 317.835 C 45.862 318.061,46.011 318.245,46.194 318.245 C 46.376 318.245,47.112 319.063,47.831 320.063 C 48.549 321.064,49.521 322.303,49.992 322.817 C 50.462 323.332,51.924 324.970,53.240 326.458 C 54.556 327.946,57.473 331.037,59.721 333.328 C 61.969 335.619,63.809 337.649,63.809 337.840 C 63.809 338.030,63.970 338.185,64.167 338.185 C 64.365 338.185,65.133 338.769,65.874 339.482 C 68.464 341.972,72.803 345.722,75.439 347.750 C 76.901 348.873,78.200 350.064,78.327 350.395 C 78.455 350.727,78.739 350.886,78.960 350.749 C 79.181 350.613,79.362 350.653,79.362 350.838 C 79.362 351.023,79.894 351.488,80.544 351.872 C 81.194 352.256,81.957 352.788,82.239 353.055 C 82.521 353.321,83.559 354.078,84.546 354.736 C 85.533 355.394,86.401 356.067,86.474 356.231 C 86.547 356.396,86.861 356.530,87.172 356.530 C 87.483 356.530,87.737 356.665,87.737 356.830 C 87.737 356.994,88.590 357.609,89.632 358.197 C 90.673 358.784,91.922 359.636,92.406 360.091 C 92.890 360.545,93.429 360.921,93.602 360.925 C 93.922 360.932,97.086 362.939,98.006 363.717 C 98.280 363.949,98.504 364.030,98.504 363.897 C 98.504 363.764,98.998 364.001,99.601 364.423 C 100.204 364.846,102.311 366.038,104.282 367.072 C 106.253 368.107,108.065 369.117,108.307 369.318 C 108.549 369.519,108.865 369.566,109.010 369.422 C 109.154 369.277,109.272 369.369,109.272 369.624 C 109.272 369.880,109.465 370.090,109.701 370.090 C 109.937 370.090,112.206 371.077,114.744 372.283 C 117.282 373.490,119.602 374.477,119.899 374.477 C 120.196 374.477,120.439 374.656,120.439 374.875 C 120.439 375.095,120.686 375.274,120.988 375.274 C 121.290 375.274,122.233 375.575,123.082 375.943 C 123.931 376.311,124.888 376.659,125.207 376.717 C 125.527 376.775,126.155 377.015,126.603 377.249 C 127.496 377.716,131.932 379.262,135.992 380.521 C 137.418 380.963,138.853 381.426,139.182 381.550 C 139.952 381.840,139.435 381.705,147.757 383.791 C 151.705 384.781,156.371 385.797,158.126 386.049 C 159.880 386.301,161.675 386.657,162.114 386.841 C 162.933 387.184,165.092 387.500,169.292 387.891 C 170.608 388.013,172.793 388.332,174.148 388.599 C 177.301 389.220,208.272 389.182,209.771 388.555 C 210.319 388.326,212.024 388.024,213.559 387.886 C 218.986 387.396,220.742 387.156,221.137 386.849 C 221.356 386.679,222.612 386.415,223.928 386.262 C 225.244 386.110,227.478 385.724,228.892 385.403 C 230.307 385.083,232.011 384.739,232.681 384.639 C 234.153 384.419,234.902 384.244,235.693 383.934 C 236.022 383.805,237.727 383.323,239.482 382.862 C 242.855 381.977,243.121 381.901,244.068 381.560 C 245.665 380.983,255.467 377.875,255.700 377.871 C 255.846 377.868,256.100 377.732,256.265 377.567 C 256.429 377.403,256.893 377.268,257.295 377.268 C 257.697 377.268,258.026 377.112,258.026 376.921 C 258.026 376.730,258.878 376.347,259.920 376.070 C 260.962 375.792,262.218 375.316,262.712 375.012 C 263.205 374.707,263.612 374.597,263.615 374.766 C 263.619 374.936,263.753 374.884,263.914 374.651 C 264.254 374.161,269.635 371.835,270.086 371.984 C 270.253 372.039,270.389 371.922,270.389 371.724 C 270.389 371.364,272.716 370.324,273.280 370.431 C 273.445 370.463,273.579 370.298,273.579 370.066 C 273.579 369.834,273.759 369.755,273.978 369.890 C 274.197 370.026,274.380 369.992,274.383 369.814 C 274.386 369.637,275.329 369.043,276.477 368.495 C 277.625 367.946,278.654 367.408,278.764 367.298 C 278.873 367.188,280.085 366.572,281.456 365.929 C 282.827 365.285,283.948 364.612,283.948 364.433 C 283.948 364.254,284.190 364.108,284.487 364.108 C 284.783 364.108,285.728 363.598,286.588 362.976 C 287.447 362.353,289.021 361.358,290.084 360.764 C 294.014 358.570,294.005 358.443,289.631 354.293 C 285.662 350.526,274.249 339.507,265.639 331.128 C 262.439 328.013,258.965 324.638,257.919 323.626 C 256.125 321.890,254.437 321.030,254.437 321.852 C 254.437 322.056,253.809 322.494,253.041 322.826 C 250.811 323.790,249.099 324.608,248.455 325.018 C 247.298 325.753,239.241 329.066,238.468 329.124 C 238.039 329.156,237.687 329.294,237.687 329.430 C 237.687 329.566,237.463 329.693,237.188 329.711 C 236.914 329.729,235.174 330.303,233.320 330.986 C 231.467 331.669,229.729 332.143,229.458 332.039 C 229.187 331.935,228.908 331.995,228.839 332.173 C 228.720 332.480,222.211 334.222,220.937 334.287 C 220.608 334.304,220.248 334.455,220.138 334.621 C 220.027 334.788,219.130 335.027,218.144 335.153 C 217.158 335.278,215.184 335.567,213.759 335.794 C 212.333 336.022,210.090 336.296,208.774 336.404 C 207.458 336.511,206.112 336.712,205.783 336.850 C 204.373 337.442,185.608 337.746,180.658 337.257 C 179.452 337.138,177.388 336.940,176.072 336.816 C 174.756 336.693,173.230 336.485,172.682 336.354 C 172.134 336.223,171.147 336.041,170.489 335.948 C 169.831 335.856,168.933 335.711,168.495 335.626 C 168.056 335.541,166.757 335.344,165.608 335.188 C 164.459 335.032,163.601 334.770,163.703 334.606 C 163.804 334.442,163.488 334.319,163.000 334.333 C 161.271 334.383,153.523 332.251,146.959 329.920 C 145.424 329.375,143.307 328.627,142.254 328.259 C 141.202 327.890,140.484 327.431,140.659 327.240 C 140.834 327.048,140.776 327.006,140.530 327.146 C 140.284 327.287,139.207 326.957,138.137 326.414 C 137.067 325.871,135.967 325.426,135.693 325.425 C 135.419 325.424,135.194 325.234,135.194 325.001 C 135.194 324.769,135.015 324.690,134.796 324.826 C 134.576 324.961,134.397 324.882,134.397 324.650 C 134.397 324.417,134.120 324.227,133.783 324.227 C 133.123 324.227,129.941 322.711,129.611 322.240 C 129.501 322.083,128.245 321.400,126.820 320.722 C 125.394 320.044,122.551 318.357,120.503 316.973 C 118.455 315.589,116.168 314.086,115.423 313.633 C 114.677 313.180,113.649 312.417,113.139 311.938 C 112.629 311.459,112.008 311.067,111.759 311.067 C 111.510 311.067,111.162 310.837,110.987 310.555 C 110.812 310.274,109.908 309.494,108.978 308.822 C 108.049 308.150,107.406 307.483,107.549 307.340 C 107.693 307.196,107.596 307.079,107.334 307.079 C 106.893 307.079,105.757 306.154,102.805 303.390 C 102.161 302.787,101.518 302.293,101.377 302.293 C 101.032 302.293,94.862 295.922,92.124 292.739 C 90.917 291.336,89.621 289.866,89.243 289.472 C 88.865 289.078,87.531 287.360,86.278 285.654 C 85.025 283.948,83.880 282.463,83.734 282.353 C 83.397 282.100,81.333 278.981,80.596 277.611 C 80.288 277.039,79.346 275.548,78.502 274.299 C 77.659 273.050,76.969 271.853,76.969 271.640 C 76.969 271.427,76.825 271.193,76.650 271.120 C 76.186 270.927,73.608 266.120,72.782 263.908 C 72.393 262.866,71.953 262.014,71.804 262.014 C 71.655 262.014,71.130 260.982,70.638 259.721 C 70.145 258.460,69.508 256.889,69.221 256.231 C 68.091 253.643,67.707 252.603,67.532 251.654 C 67.431 251.110,67.212 250.571,67.045 250.457 C 66.456 250.055,63.587 240.438,62.402 234.895 C 62.332 234.566,62.247 234.297,62.213 234.297 C 62.031 234.297,60.806 228.056,60.423 225.172 C 60.303 224.269,60.010 222.306,59.773 220.811 C 59.535 219.317,59.447 217.987,59.577 217.857 C 59.707 217.727,59.624 217.393,59.393 217.114 C 58.572 216.124,58.738 192.927,59.574 191.848 C 59.926 191.394,59.901 191.344,59.460 191.610 C 59.049 191.858,58.989 191.803,59.233 191.408 C 59.417 191.111,59.604 190.500,59.650 190.050 C 59.894 187.631,60.374 184.487,61.076 180.706 C 61.509 178.376,61.905 176.198,61.957 175.865 C 62.009 175.533,62.158 175.084,62.289 174.868 C 62.420 174.653,62.834 172.951,63.209 171.087 C 63.585 169.222,64.075 167.473,64.298 167.198 C 64.521 166.924,64.570 166.700,64.407 166.700 C 64.243 166.700,64.302 166.468,64.537 166.185 C 64.772 165.902,65.163 164.780,65.406 163.693 C 65.927 161.364,68.561 154.368,70.220 150.907 C 70.861 149.568,71.386 148.167,71.386 147.792 C 71.386 147.418,71.556 147.217,71.764 147.345 C 71.973 147.474,72.257 146.975,72.395 146.236 C 72.639 144.936,72.483 144.734,67.539 139.944 C 64.730 137.222,60.875 133.470,58.973 131.605 C 57.070 129.741,53.824 126.600,51.759 124.626 C 49.694 122.652,45.171 118.300,41.708 114.955 C 35.950 109.392,34.297 108.130,34.297 109.296 M320.359 159.040 C 319.657 159.414,319.086 159.811,319.091 159.920 C 319.095 160.030,318.889 160.658,318.633 161.316 C 317.958 163.045,317.899 163.646,318.345 164.207 C 318.563 164.482,318.608 164.706,318.445 164.706 C 318.281 164.706,318.326 164.930,318.543 165.204 C 318.931 165.693,319.969 169.606,319.972 170.588 C 319.973 170.862,320.142 171.087,320.348 171.087 C 320.555 171.087,320.620 171.356,320.494 171.685 C 320.368 172.014,320.458 172.283,320.694 172.283 C 320.953 172.283,321.024 172.679,320.873 173.280 C 320.735 173.829,320.795 174.277,321.005 174.277 C 321.215 174.277,321.510 175.130,321.662 176.171 C 321.813 177.213,322.254 179.729,322.643 181.763 C 323.031 183.796,323.312 185.991,323.267 186.641 C 323.222 187.290,323.311 187.870,323.463 187.929 C 324.711 188.410,324.784 218.010,323.546 221.336 C 323.423 221.665,323.272 222.562,323.209 223.330 C 323.147 224.098,322.980 225.354,322.839 226.122 C 322.698 226.889,322.528 227.876,322.462 228.315 C 321.905 232.014,321.239 235.294,321.045 235.294 C 320.915 235.294,320.796 235.608,320.780 235.992 C 320.735 237.046,320.331 238.831,319.677 240.854 C 319.354 241.854,318.517 244.467,317.817 246.660 C 317.117 248.853,316.236 251.366,315.858 252.243 C 315.154 253.880,314.695 255.097,314.655 255.433 C 314.642 255.537,314.274 256.457,313.837 257.477 L 313.042 259.331 315.644 261.820 C 317.075 263.189,318.245 264.217,318.245 264.104 C 318.245 263.991,318.773 264.562,319.417 265.373 C 320.062 266.184,321.186 267.331,321.916 267.921 C 324.452 269.971,328.015 273.676,327.883 274.125 C 327.810 274.373,327.874 274.452,328.026 274.301 C 328.327 273.999,328.913 274.532,337.984 283.350 C 345.783 290.931,350.851 295.679,351.307 295.832 C 351.626 295.939,354.138 292.596,354.138 292.064 C 354.138 291.944,354.926 290.293,355.890 288.395 C 359.328 281.625,359.666 280.940,360.237 279.561 C 360.555 278.794,361.308 276.999,361.911 275.573 C 363.858 270.969,364.000 270.617,364.728 268.594 C 365.123 267.498,365.429 266.510,365.409 266.401 C 365.389 266.291,365.558 265.977,365.786 265.703 C 366.013 265.429,366.066 265.204,365.902 265.204 C 365.739 265.204,365.786 264.980,366.007 264.706 C 366.334 264.300,366.676 263.203,367.096 261.216 C 367.239 260.537,367.839 258.849,368.303 257.817 C 368.601 257.154,368.933 256.167,369.041 255.624 C 369.149 255.081,369.621 253.200,370.088 251.446 C 370.556 249.691,371.002 247.986,371.079 247.657 C 371.829 244.464,372.126 242.989,372.301 241.598 C 372.414 240.700,372.601 239.812,372.716 239.625 C 372.997 239.172,373.185 238.193,373.860 233.699 C 374.869 226.970,374.942 226.359,374.942 224.629 C 374.942 223.692,375.063 223.000,375.211 223.091 C 375.359 223.183,375.504 222.242,375.535 221.001 C 375.565 219.759,375.701 217.398,375.837 215.753 C 376.170 211.731,376.179 198.073,375.852 193.619 C 375.707 191.645,375.563 189.178,375.531 188.136 C 375.499 187.094,375.369 186.241,375.241 186.241 C 375.113 186.241,375.006 186.017,375.003 185.743 C 374.988 184.337,374.354 178.736,373.864 175.673 C 373.688 174.576,373.510 173.410,373.468 173.081 C 373.425 172.752,373.285 172.213,373.155 171.884 C 373.025 171.555,372.834 170.748,372.729 170.090 C 371.411 161.795,370.261 159.020,367.946 158.555 C 364.753 157.914,321.646 158.353,320.359 159.040 " stroke="none" fill="#fc537c" fill-rule="evenodd"></path><path id="path1" d="M210.768 131.771 C 208.382 132.537,206.273 133.894,203.390 136.520 C 201.964 137.818,200.349 139.170,199.801 139.525 C 199.252 139.879,198.573 140.389,198.292 140.657 C 197.793 141.134,196.429 141.457,194.021 141.669 C 193.223 141.740,192.782 142.021,192.687 142.521 C 192.543 143.276,192.802 143.543,206.780 157.053 C 209.850 160.021,215.527 165.514,219.395 169.261 C 223.262 173.007,229.870 179.392,234.080 183.450 C 242.252 191.327,252.904 201.633,261.531 210.009 C 267.846 216.139,268.531 216.402,268.716 212.762 C 268.783 211.446,269.007 210.198,269.214 209.990 C 269.727 209.474,269.707 196.330,269.192 196.012 C 268.973 195.876,268.794 195.249,268.794 194.619 C 268.794 186.726,263.932 180.364,256.281 178.246 C 246.348 175.498,243.788 170.855,246.419 160.364 C 247.664 155.402,247.200 151.212,245.036 147.872 C 244.121 146.460,238.477 141.323,237.348 140.875 C 237.052 140.758,236.407 140.284,235.915 139.822 C 233.910 137.942,227.119 134.368,223.933 133.516 C 222.944 133.252,222.134 132.907,222.134 132.751 C 222.134 131.628,213.528 130.886,210.768 131.771 M118.565 191.047 C 118.700 191.562,118.613 192.220,118.371 192.511 C 117.770 193.235,117.456 207.349,117.978 210.169 C 120.115 221.712,123.268 225.787,131.661 227.850 C 140.633 230.056,144.480 237.171,140.969 245.065 C 139.837 247.611,139.997 253.216,141.283 256.032 C 143.635 261.181,155.474 269.957,163.310 272.361 C 164.187 272.630,165.481 273.109,166.184 273.424 C 170.982 275.579,178.474 274.524,181.830 271.221 C 186.744 266.384,190.563 264.008,193.424 264.008 C 196.236 264.008,195.160 262.704,181.403 249.434 C 174.136 242.425,166.529 235.075,164.499 233.101 C 158.665 227.427,143.784 213.093,139.864 209.372 C 136.174 205.868,123.945 194.001,121.834 191.877 C 120.193 190.224,118.219 189.723,118.565 191.047 " stroke="none" fill="#636363" fill-rule="evenodd"></path><path id="path2" d="" stroke="none" fill="#100586c" fill-rule="evenodd"></path><path id="path3" d="" stroke="none" fill="#100586c" fill-rule="evenodd"></path><path id="path4" d="" stroke="none" fill="#100586c" fill-rule="evenodd"></path></g></svg>