<?xml version="1.0" encoding="utf-8"?>
<!-- Generator: Adobe Illustrator 22.1.0, SVG Export Plug-In . SVG Version: 6.00 Build 0)  -->
<svg version="1.1" id="图层_1" xmlns="http://www.w3.org/2000/svg" xmlns:xlink="http://www.w3.org/1999/xlink" x="0px" y="0px"
	 viewBox="0 0 356.9 307" style="enable-background:new 0 0 356.9 307;" xml:space="preserve">
<style type="text/css">
	.st0{fill:none;stroke:#FD507E;stroke-width:10;stroke-miterlimit:10;}
</style>
<title>non-overlapping-2</title>
<path class="st0" d="M178.3,218.1c-35.9,8.9-72.2-13-81.1-49c-8.2-33.2,9.9-67.3,42.1-79c0,0,20.8-62.1,19.6-62.3
	c-2.6-0.4-5.1-1.3-7.4-2.6c-9.1-4.2-12.7-12-21.1-16.4s-12.1-4.1-16.4-3.7s-22.1,7.3-32.1,13.3s-22,17-24.5,20.5s-4.5,6.5-5,16
	s4.5,16.5,3.5,26.5c0,1.7-0.2,3.4-0.6,5c-1.6,5-5,9.3-9.6,11.8c-8.2,5.8-16.7,5-24.7,10.1c-8,5.1-9.6,8.4-11.4,12.3
	S4.8,143.6,5,155.3s3.7,27.5,5.5,31.5s3.4,7.1,11.4,12.3s16.5,4.4,24.7,10.2c1.5,1,3,2.1,4.4,3.3c3.4,3.9,5.2,8.9,5.1,14
	c1,10-4.1,17-3.6,26.5s2.4,12.5,4.9,16s17.4,15.5,27.6,21.2s25.7,10.5,30,11s7.9,0.6,16.4-3.7s12-12.1,21.2-16.3
	c1.4-0.7,2.8-1.3,4.3-1.7c4.2-1,8.5-0.8,12.5,0.8L178.3,218.1z M205.3,281.7c9.1,4.2,12.7,12,21.1,16.4s12.1,4.1,16.4,3.7
	s22.2-7.3,32.2-13.3s22-17,24.5-20.5s4.5-6.5,5-16s-4.5-16.5-3.5-26.5c0.2-1.7,0.5-3.4,1.1-5c1.3-5,4.6-9.3,9.2-11.9
	c8.2-5.8,16.7-5,24.7-10.1s9.6-8.4,11.4-12.3c1.8-3.9,4.8-22.8,4.6-34.5s-3.7-27.5-5.5-31.5c-1.8-3.9-3.4-7.1-11.4-12.3
	s-16.5-4.4-24.7-10.2c-5.5-4.1-8.9-10.4-9.5-17.3c-1-10,4-17,3.6-26.5c-0.5-9.5-2.5-12.5-4.9-16S282,22.4,271.8,16.7
	s-25.7-10.6-30-11s-7.9-0.6-16.4,3.7s-11.5,11.1-21.2,16.3c-1.4,0.7-2.9,1.3-4.4,1.8L197.2,86c37,1,66.2,31.8,65.2,68.8
	c-0.6,22.8-12.8,43.7-32.3,55.5L205.3,281.7z"/>
</svg>
