<?xml version="1.0" encoding="utf-8"?>
<!-- Generator: Adobe Illustrator 22.1.0, SVG Export Plug-In . SVG Version: 6.00 Build 0)  -->
<svg version="1.1" id="图层_1" xmlns="http://www.w3.org/2000/svg" xmlns:xlink="http://www.w3.org/1999/xlink" x="0px" y="0px"
	 viewBox="0 0 356.9 307" style="enable-background:new 0 0 356.9 307;" xml:space="preserve">
<style type="text/css">
	.st0{fill:none;stroke:#FD507E;stroke-width:8;stroke-miterlimit:10;}
	.st1{fill:#FD507E;}
</style>
<title>non-overlapping-2</title>
<path class="st0" d="M184,90.7c-0.8-0.6-1.6-1.3-2.3-2.2c-2.5-2.4-3.9-5.7-3.9-9.2c-0.6-6.5,2.6-11.1,2.3-17.3
	c-0.3-6.2-1.6-8.2-3.2-10.5c-1.6-2.3-11.4-10.2-18.1-13.9c-6.6-3.7-16.8-6.8-19.6-7.1c-2.8-0.3-5.2-0.5-10.7,2.4
	c-5.6,2.8-7.6,7.2-13.9,10.6c-0.9,0.5-1.9,0.8-2.9,1.2c-3.4,0.8-7,0.3-10-1.5c-6-2.7-8.3-7.9-13.8-10.7c-5.5-2.8-8-2.6-10.7-2.4
	C74.3,30.5,62.6,35,56,39S41.7,50.1,40,52.4c-1.7,2.2-2.9,4.2-3.2,10.5c-0.3,6.2,2.9,10.8,2.3,17.3c0,1.1-0.2,2.2-0.5,3.3
	c-1,3.2-3.2,6-6.3,7.7c-5.3,3.8-11,3.2-16.2,6.6s-6.3,5.5-7.5,8c-1.2,2.5-3.1,14.9-3,22.6c0.1,7.6,2.5,18,3.6,20.6
	c1.2,2.5,2.2,4.7,7.4,8.1s10.8,2.8,16.1,6.7c1,0.6,1.9,1.4,2.9,2.2c2.2,2.5,3.5,5.8,3.3,9.2c0.6,6.5-2.6,11.1-2.3,17.3
	c0.3,6.2,1.6,8.2,3.2,10.5c1.6,2.3,11.4,10.2,18.1,13.9s16.8,6.9,19.6,7.2c2.8,0.3,5.2,0.4,10.7-2.4s7.9-7.9,13.9-10.6
	c0.9-0.5,1.9-0.8,2.8-1.2c3.4-0.8,7-0.4,10.1,1.4c6,2.7,8.3,7.9,13.8,10.7c5.5,2.8,7.9,2.7,10.7,2.5c2.9-0.2,14.5-4.8,21-8.7
	c1.2-0.7,2.5-1.5,3.7-2.5c-2.6-0.8-5.3-1.5-7.7-3.1c-5.3-3.4-6.3-5.5-7.4-8.1c-1.2-2.6-3.5-12.9-3.6-20.6c-0.2-7.6,1.8-19.9,3-22.6
	c1.2-2.6,2.2-4.6,7.5-8c5.3-3.4,10.8-2.8,16.2-6.6c3-1.7,5.3-4.4,6.3-7.7c0.3-1.1,0.5-2.2,0.4-3.3c0.7-6.5-2.6-11.1-2.3-17.3
	c0.3-6.2,1.6-8.2,3.2-10.5c1.3-1.8,6.8-7,12.4-10.9C189.6,93.5,186.7,92.7,184,90.7z M108.7,170.6c-24.3,0-43.9-19.6-43.9-43.7
	s19.6-43.7,43.9-43.7s43.9,19.6,43.9,43.7l0,0C152.6,150.9,133,170.6,108.7,170.6z"/>
<path class="st0" d="M351.3,178.8c-0.2-7.6-2.5-18-3.6-20.6c-1.2-2.5-2.2-4.7-7.4-8.1s-10.8-2.8-16.1-6.7c-0.8-0.6-1.6-1.3-2.3-2.2
	c-2.5-2.4-3.9-5.7-3.9-9.2c-0.6-6.5,2.6-11.1,2.3-17.3c-0.3-6.2-1.6-8.2-3.2-10.5s-11.4-10.2-18.1-13.9c-6.6-3.7-16.8-6.9-19.6-7.2
	c-2.8-0.3-5.2-0.5-10.7,2.4s-7.6,7.2-13.9,10.6c-0.9,0.5-1.9,0.8-2.9,1.2c-3.4,0.8-7,0.3-10-1.5c-6-2.7-8.3-7.9-13.8-10.7
	c-5.5-2.8-7.9-2.7-10.7-2.4c-2.8,0.3-14.5,4.8-21.1,8.7c-1.2,0.7-2.5,1.5-3.7,2.5c2.7,0.6,5.3,1.7,7.7,3.1c5.3,3.4,6.3,5.5,7.4,8
	c1.2,2.5,3.5,12.9,3.6,20.6c0.2,7.6-1.8,19.9-3,22.6c-1.2,2.5-2.2,4.6-7.5,8c-5.3,3.4-10.8,2.8-16.2,6.6c-3,1.6-5.2,4.4-6,7.7
	c-0.4,1.1-0.6,2.2-0.7,3.2c-0.6,6.5,2.6,11.1,2.3,17.3c-0.3,6.2-1.6,8.2-3.2,10.5c-1.3,1.8-6.8,7-12.4,10.9c2.8,0.8,5.6,1.6,8.4,3.6
	c1,0.6,1.9,1.4,2.9,2.2c2.2,2.5,3.5,5.8,3.4,9.2c0.6,6.5-2.6,11.1-2.3,17.3c0.3,6.2,1.6,8.2,3.2,10.5c1.6,2.3,11.4,10.2,18.1,13.9
	s16.8,6.9,19.6,7.2c2.8,0.3,5.2,0.4,10.7-2.4c5.6-2.8,7.9-7.9,13.9-10.6c0.9-0.5,1.9-0.8,2.8-1.2c3.4-0.8,7-0.4,10.1,1.4
	c6,2.7,8.3,7.9,13.8,10.7s7.9,2.7,10.7,2.5c2.8-0.2,14.5-4.8,21.1-8.7c6.6-3.9,14.4-11.1,16.1-13.4c1.6-2.3,2.9-4.2,3.2-10.5
	c0.3-6.2-2.9-10.8-2.3-17.3c0.1-1.1,0.3-2.2,0.7-3.2c0.8-3.3,3-6.1,6-7.7c5.3-3.9,11-3.2,16.2-6.6c5.3-3.4,6.3-5.5,7.5-8
	S351.4,186.4,351.3,178.8z M292.7,181.1c-0.8,24.2-21.1,43.1-45.3,42.3c-24.3-0.8-43.2-21-42.4-45.1c0.8-23,19.3-41.6,42.4-42.3
	c24.3-0.7,44.6,18.4,45.3,42.6C292.7,179.4,292.7,180.3,292.7,181.1L292.7,181.1z"/>
<path class="st1" d="M208.2,148.5c-1.2,2.5-2.2,4.6-7.5,8c-5.3,3.4-10.8,2.8-16.2,6.6c-3,1.6-5.2,4.4-6,7.7
	c-0.4,1.1-0.6,2.2-0.7,3.2c-0.6,6.5,2.6,11.1,2.3,17.3c-0.3,6.2-1.6,8.2-3.2,10.5c-1.3,1.8-6.8,7-12.4,10.9
	c-2.6-0.8-5.3-1.5-7.7-3.1c-5.3-3.4-6.3-5.5-7.4-8.1c-1.2-2.6-3.5-12.9-3.6-20.6s1.8-19.9,3-22.6c1.2-2.6,2.2-4.6,7.5-8
	s10.8-2.8,16.2-6.6c3-1.7,5.3-4.4,6.3-7.7c0.3-1.1,0.5-2.2,0.4-3.3c0.7-6.5-2.6-11.1-2.3-17.3c0.3-6.2,1.6-8.2,3.3-10.5
	c1.3-1.8,6.8-7,12.4-10.9c2.7,0.6,5.3,1.7,7.7,3.1c5.3,3.4,6.3,5.5,7.4,8c1.2,2.5,3.5,12.9,3.6,20.6
	C211.4,133.5,209.4,145.9,208.2,148.5z"/>
</svg>
