<?xml version="1.0" encoding="utf-8"?>
<!-- Generator: Adobe Illustrator 22.1.0, SVG Export Plug-In . SVG Version: 6.00 Build 0)  -->
<svg version="1.1" id="图层_1" xmlns="http://www.w3.org/2000/svg" xmlns:xlink="http://www.w3.org/1999/xlink" x="0px" y="0px"
	 viewBox="0 0 424.3 453.1" style="enable-background:new 0 0 424.3 453.1;" xml:space="preserve">
<style type="text/css">
	.st0{fill:#606060;}
	.st1{fill:#FD507E;}
</style>
<title>no-loop</title>
<path class="st0" d="M272.6,225c-0.1-5.3-1.7-12.6-2.6-14.4c-0.9-1.8-1.5-3.3-5.2-5.7c-3.7-2.4-7.6-2-11.3-4.6
	c-0.7-0.4-1.6-1.5-1.6-1.5s-2.8-2.3-2.8-6.5c-0.5-4.6,1.9-7.8,1.6-12.1c-0.2-4.4-1.1-5.7-2.3-7.3c-1.1-1.6-8-7.1-12.6-9.7
	c-4.6-2.6-11.8-4.8-13.8-5c-2-0.2-3.6-0.3-7.5,1.7c-3.9,2-5.3,5.1-9.7,7.5c-0.7,0.4-2,0.9-2,0.9s-3.5,1-7-1
	c-4.2-1.9-5.8-5.5-9.7-7.5c-3.9-2-5.5-1.9-7.5-1.7c-2,0.2-10.2,3.3-14.7,6.1c-4.6,2.8-10.1,7.8-11.2,9.4s-2.1,2.9-2.3,7.3
	c-0.2,4.4,2.1,7.6,1.6,12.1c0,0.9-0.1,1.6-0.3,2.3c0,0-0.9,3.4-4.4,5.4c-3.8,2.7-7.7,2.3-11.3,4.6c-3.7,2.4-4.4,3.9-5.2,5.6
	c-0.9,1.8-2.2,10.4-2.1,15.8c0.1,5.3,1.7,12.6,2.6,14.4c0.9,1.8,1.5,3.3,5.2,5.7c3.7,2.4,7.6,2,11.3,4.6c0.8,0.5,2,1.5,2,1.5
	s2.4,2.3,2.4,6.5c0.5,4.6-1.9,7.8-1.6,12.1c0.2,4.4,1.1,5.7,2.3,7.3c1.1,1.6,8,7.1,12.6,9.7c4.6,2.6,11.8,4.8,13.8,5
	c2,0.2,3.6,0.3,7.5-1.7s5.5-5.6,9.7-7.5c0.8-0.5,2-0.8,2-0.8s3.5-1,7.1,0.9c4.2,1.9,5.8,5.5,9.7,7.5c3.9,2,5.5,1.9,7.5,1.7
	c2-0.2,10.2-3.3,14.7-6.1c4.6-2.8,10.1-7.8,11.2-9.4c1.1-1.6,2.1-2.9,2.3-7.3c0.2-4.4-2.1-7.6-1.6-12.1c0-0.8,0.5-2.3,0.5-2.3
	s0.7-3.4,4.2-5.4c3.8-2.7,7.7-2.3,11.3-4.6c3.7-2.4,4.4-3.9,5.2-5.6C271.3,239,272.7,230.3,272.6,225z M200.9,256.3
	c-17,0-30.7-13.8-30.7-30.7s13.8-30.7,30.7-30.7s30.7,13.8,30.7,30.7C231.6,242.5,217.8,256.3,200.9,256.3z"/>
<path class="st1" d="M223.9,225.7c0,1.5-0.2,2.9-0.4,4.4l-10.7,15.4c-3.3,2-7.2,3.2-11.4,3.3h-0.6c-10.2,0-18.8-6.5-21.8-15.8
	c-0.8-2.3-1.2-4.7-1.2-7.3c0-1.6,0.2-3.2,0.5-4.7l10.3-14.8c3.3-2.1,7.3-3.4,11.6-3.5c0.2,0,0.5,0,0.7,0c10.2,0,18.7,6.5,21.8,15.6
	C223.4,220.5,223.9,223,223.9,225.7z"/>
<path class="st1" d="M241.5,153.1c-3-1.7-6.9-3.2-10.2-4.4c17.3-18.9,26.9-31.5,56.8-31.5H327V78.5c0-7.1,3.5-10.6,10.6-7.1l81.3,53
	c7.1,3.5,7.1,10.5,0,14.1l-81.3,52.9c-7.1,3.5-10.6,0-10.6-7.1V156h-38.9c-19.4,0-18.1,11.8-31.1,27.2c0.5-3.5,2-6.5,1.8-10.3
	c-0.3-5-1.3-6.6-2.7-8.5C254.9,162.5,246.9,156.1,241.5,153.1z"/>
<path class="st1" d="M419,332.8l-81.3,52.9c-7.1,3.5-10.6,0-10.6-7.1v-28.3h-38.9c-17.7,0-38.9-10.6-49.5-21.2l-24.8-24.8
	c-3-3-5.2-6.5-6.5-9.9c4,2.3,5.9,5.9,10,8.1c4.5,2.3,6.5,2.2,8.7,2c2.3-0.2,11.8-3.9,17.1-7.1c5.3-3.2,11.7-9,13-10.9
	c0.5-0.7,0.9-1.3,1.3-2.2l13,13c3.5,3.5,14.1,7.1,17.6,7.1h38.9v-35.3c0-7.1,3.5-10.6,10.6-7.1l81.3,56.6
	C426,322.2,426,329.3,419,332.8z"/>
<path class="st1" d="M1.8,131.3c0-10.5,7.1-21.2,21.3-21.2h70.7c17.7,0,38.9,10.6,49.5,21.2l20,20c-1.9,0.9-3.6,1.8-5.1,2.7
	c-5.3,3.2-11.7,9-13,10.9c-1.3,1.9-2.4,3.4-2.7,8.5c-0.3,5,2.4,8.7,1.9,14.1c0,0.9-0.1,1.9-0.4,2.7c0,0-0.4,1.6-1.8,3.4
	c-2.3-1.3-4.4-3.2-6.1-5.7l-24.8-24.9c-3.5-3.5-14.1-7.1-17.6-7.1H23C12.4,156.1,1.8,145.4,1.8,131.3z"/>
<path class="st1" d="M159.7,298.5c3.8,2.1,8.9,4,12.4,5l-0.7,0.9c-24.8,24.8-74.3,42.4-109.6,42.4H23c-10.6,0-21.3-7.1-21.3-21.2
	c0-10.6,7.1-21.3,21.3-21.3h38.9c21.3,0,63.7-14.1,77.7-28.3l4.3-6.1c-0.7,2.8-1.6,5.5-1.4,8.6c0.3,5,1.3,6.6,2.7,8.5
	C146.5,289.1,154.3,295.5,159.7,298.5z"/>
</svg>
