<?xml version="1.0" standalone="no"?><!DOCTYPE svg PUBLIC "-//W3C//DTD SVG 1.1//EN" "http://www.w3.org/Graphics/SVG/1.1/DTD/svg11.dtd"><svg t="1640336140620" class="icon" viewBox="0 0 1024 1024" version="1.1" xmlns="http://www.w3.org/2000/svg" p-id="1100" xmlns:xlink="http://www.w3.org/1999/xlink" width="200" height="200"><defs><style type="text/css"></style></defs><path d="M714.24 363.093333L565.333333 512l148.906667 148.906667a37.546667 37.546667 0 1 1-53.333333 53.333333L512 565.333333l-148.906667 148.906667a37.546667 37.546667 0 1 1-53.333333-53.333333L458.666667 512 309.76 363.093333a37.546667 37.546667 0 1 1 53.333333-53.333333L512 458.666667l148.906667-148.906667a37.546667 37.546667 0 1 1 53.333333 53.333333zM512 42.666667A469.333333 469.333333 0 0 0 42.666667 512 469.333333 469.333333 0 1 0 512 42.666667z m0 878.506666A409.173333 409.173333 0 0 1 102.826667 512a409.173333 409.173333 0 0 1 818.346666 0A409.173333 409.173333 0 0 1 512 921.173333z" p-id="1101"></path></svg>